<?xml version="1.0" standalone="no"?>
<!DOCTYPE svg PUBLIC "-//W3C//DTD SVG 20010904//EN"
 "http://www.w3.org/TR/2001/REC-SVG-20010904/DTD/svg10.dtd">
<svg version="1.0" xmlns="http://www.w3.org/2000/svg"
 width="64.000000pt" height="64.000000pt" viewBox="0 0 64.000000 64.000000"
 preserveAspectRatio="xMidYMid meet">
<metadata>
Created by potrace 1.16, written by Peter Selinger 2001-2019
</metadata>
<g transform="translate(0.000000,64.000000) scale(0.100000,-0.100000)"
fill="#000000" stroke="none">
<path d="M241 525 c-55 -17 -106 -66 -127 -121 -26 -68 -20 -73 88 -71 l93 2
3 94 c1 52 -1 97 -5 102 -4 4 -28 1 -52 -6z"/>
<path d="M326 523 c-3 -8 -6 -55 -6 -105 l0 -90 78 -74 c42 -40 80 -74 83 -74
3 0 15 17 27 39 16 29 22 55 22 104 0 57 -4 71 -32 113 -35 51 -78 81 -133 94
-26 6 -35 4 -39 -7z"/>
<path d="M120 295 c0 -5 14 -19 30 -30 16 -11 30 -23 30 -28 0 -16 110 -118
120 -112 6 4 9 1 8 -7 -2 -10 19 -14 90 -16 54 -1 92 2 92 7 0 6 -40 52 -90
102 l-89 92 -96 2 c-59 0 -95 -3 -95 -10z"/>
</g>
</svg>
