<?xml version="1.0" standalone="no"?>
<!DOCTYPE svg PUBLIC "-//W3C//DTD SVG 20010904//EN"
 "http://www.w3.org/TR/2001/REC-SVG-20010904/DTD/svg10.dtd">
<svg version="1.0" xmlns="http://www.w3.org/2000/svg"
 width="866.000000pt" height="650.000000pt" viewBox="0 0 866.000000 650.000000"
 preserveAspectRatio="xMidYMid meet">

<g transform="translate(0.000000,650.000000) scale(0.100000,-0.100000)"
fill="#000000" stroke="none">
<path d="M1040 3006 l0 -846 418 0 c332 0 430 3 480 15 184 43 313 170 352
346 20 88 9 231 -23 301 -30 68 -92 137 -153 173 l-45 26 38 28 c138 100 196
256 159 429 -38 179 -151 294 -341 348 -51 15 -124 18 -472 22 l-413 4 0 -846z
m763 533 c56 -15 112 -70 127 -124 27 -95 -10 -183 -95 -225 -48 -24 -60 -25
-252 -28 l-203 -3 0 195 0 196 193 0 c105 0 209 -5 230 -11z m50 -698 c69 -33
101 -85 105 -170 5 -108 -47 -183 -147 -211 -20 -5 -125 -10 -233 -10 l-198 0
0 203 c0 112 3 207 8 211 4 4 99 6 212 4 192 -3 208 -5 253 -27z"/>
<path d="M2480 3846 c0 -2 58 -114 128 -247 71 -134 188 -357 260 -495 l132
-251 0 -347 0 -346 170 0 170 0 0 346 0 347 182 346 c100 190 217 413 260 495
43 81 78 150 78 152 0 2 -82 4 -183 4 l-183 0 -149 -317 c-81 -175 -154 -329
-161 -343 -12 -24 -15 -18 -83 125 -40 83 -113 237 -164 342 l-92 193 -182 0
c-101 0 -183 -2 -183 -4z"/>
<path d="M4100 3006 l0 -846 413 0 c381 0 420 2 492 20 141 36 242 115 300
234 65 133 69 300 9 423 -30 62 -100 135 -156 164 l-39 20 48 32 c101 68 163
191 163 322 0 226 -131 394 -352 452 -52 13 -136 17 -470 20 l-408 5 0 -846z
m791 517 c68 -35 99 -84 99 -161 0 -68 -19 -111 -65 -150 -53 -43 -107 -52
-310 -52 l-175 0 0 195 0 195 198 0 c197 0 199 0 253 -27z m9 -679 c25 -12 58
-35 73 -53 78 -93 50 -251 -55 -311 -42 -24 -50 -25 -260 -28 l-218 -3 0 211
0 212 208 -4 c184 -3 212 -6 252 -24z"/>
<path d="M6370 3700 l0 -150 225 0 225 0 0 -695 0 -695 170 0 170 0 0 695 0
695 230 0 231 0 -3 148 -3 147 -622 3 -623 2 0 -150z"/>
</g>
</svg>
