<?xml version="1.0" standalone="no"?>
<!DOCTYPE svg PUBLIC "-//W3C//DTD SVG 20010904//EN"
 "http://www.w3.org/TR/2001/REC-SVG-20010904/DTD/svg10.dtd">
<svg version="1.0" xmlns="http://www.w3.org/2000/svg"
 width="300.000000pt" height="168.000000pt" viewBox="0 0 300.000000 168.000000"
 preserveAspectRatio="xMidYMid meet">

<g transform="translate(0.000000,168.000000) scale(0.100000,-0.100000)"
fill="#000000" stroke="none">
<path d="M1255 1263 c-78 -9 -98 -16 -132 -46 -70 -61 -73 -76 -73 -402 0
-282 1 -292 23 -335 12 -24 39 -58 60 -74 l39 -31 328 0 328 0 39 31 c21 16
48 50 61 74 21 43 22 53 22 335 0 290 0 291 -25 341 -36 72 -77 96 -183 105
-87 8 -430 9 -487 2z m435 -393 c0 -73 -3 -90 -15 -90 -12 0 -15 17 -15 90 0
73 3 90 15 90 12 0 15 -17 15 -90z m-429 29 c15 -8 19 -20 18 -52 -1 -23 2
-52 6 -64 12 -36 -25 -63 -85 -63 l-50 0 0 95 0 95 46 0 c25 0 54 -5 65 -11z
m103 -26 l18 -38 15 38 c10 24 22 37 34 37 24 0 24 -1 -6 -60 -14 -28 -25 -66
-25 -90 0 -33 -3 -40 -20 -40 -17 0 -20 7 -20 40 0 24 -11 62 -25 90 -30 59
-30 60 -7 60 11 0 25 -15 36 -37z m225 27 c25 -13 33 -37 21 -60 -7 -13 -6
-27 1 -44 10 -20 9 -30 -5 -51 -14 -22 -24 -25 -71 -25 l-55 0 0 95 0 95 46 0
c25 0 53 -4 63 -10z m269 -7 c-2 -10 -12 -18 -23 -18 -18 0 -20 -8 -23 -77 -3
-70 -5 -78 -22 -78 -18 0 -20 7 -20 80 0 73 -2 80 -20 80 -11 0 -20 7 -20 15
0 12 14 15 66 15 57 0 65 -2 62 -17z"/>
<path d="M1190 855 c0 -26 22 -33 49 -16 12 8 12 12 2 25 -21 26 -51 20 -51
-9z"/>
<path d="M1190 781 c0 -17 6 -21 31 -21 24 0 30 4 27 18 -2 10 -14 18 -31 20
-22 3 -27 -1 -27 -17z"/>
<path d="M1520 855 c0 -27 10 -31 41 -14 16 8 18 13 8 25 -20 24 -49 17 -49
-11z"/>
<path d="M1520 781 c0 -20 30 -33 50 -21 20 13 3 40 -25 40 -18 0 -25 -5 -25
-19z"/>
</g>
</svg>
